<svg xmlns="http://www.w3.org/2000/svg" viewBox="0 0 900 1100">
  <rect width="900" height="1100" fill="#080808"/>
  <circle cx="450" cy="430" r="300" fill="#171513"/>
  <path d="M350 245h200v130H350z" fill="#D4AF37"/>
  <path d="M390 155h120v92H390z" fill="#111" stroke="#D4AF37" stroke-width="8"/>
  <path d="M282 392c0-50 40-90 90-90h156c50 0 90 40 90 90v452c0 50-40 90-90 90H372c-50 0-90-40-90-90V392Z" fill="#111" stroke="#D4AF37" stroke-width="10"/>
  <path d="M330 452h240v285H330z" fill="#21170d" stroke="#8A6A13" stroke-width="4"/>
  <path d="M450 470 558 708H342L450 470Z" fill="#D4AF37"/>
  <path d="M450 523 512 680H388L450 523Z" fill="#6d4a1a"/>
  <text x="450" y="805" text-anchor="middle" font-family="Georgia,serif" font-size="40" fill="#F5F5F5">Cedar Amber</text>
</svg>
