<svg xmlns="http://www.w3.org/2000/svg" viewBox="0 0 900 1100">
  <rect width="900" height="1100" fill="#080808"/>
  <circle cx="450" cy="430" r="300" fill="#190f0b"/>
  <path d="M350 245h200v130H350z" fill="#D4AF37"/>
  <path d="M390 155h120v92H390z" fill="#111" stroke="#D4AF37" stroke-width="8"/>
  <path d="M282 392c0-50 40-90 90-90h156c50 0 90 40 90 90v452c0 50-40 90-90 90H372c-50 0-90-40-90-90V392Z" fill="#111" stroke="#D4AF37" stroke-width="10"/>
  <path d="M330 452h240v285H330z" fill="#22100a" stroke="#8A6A13" stroke-width="4"/>
  <path d="M380 685c38-86 102-142 140-225-4 80 25 116 0 184-19 54-72 75-140 41Z" fill="#D4AF37"/>
  <path d="M447 670c-10-63 26-104 58-153-5 52 16 80 6 119-9 34-33 50-64 34Z" fill="#7c2f1d"/>
  <text x="450" y="805" text-anchor="middle" font-family="Georgia,serif" font-size="42" fill="#F5F5F5">Velvet Incense</text>
</svg>
