<svg xmlns="http://www.w3.org/2000/svg" width="150" height="150" viewBox="0 0 150 150" version="1.1"><path d="M 60.022 3.563 C 44.109 7.012, 34.585 12.234, 22.909 23.909 C 13.446 33.373, 8.746 40.865, 4.347 53.500 C 1.800 60.817, 1.561 62.737, 1.549 76 C 1.537 89.707, 1.707 90.979, 4.653 99.261 C 8.760 110.807, 13.031 117.817, 21.344 126.654 C 32.451 138.462, 44.457 145.154, 60.466 148.461 C 100.434 156.717, 139.875 130.325, 147.590 90.162 C 155.223 50.432, 130.040 12.160, 90.500 3.400 C 82.788 1.691, 68.300 1.769, 60.022 3.563 M 57.500 9.872 C 38.025 15.485, 22.435 28.562, 13.832 46.500 C -2.496 80.547, 11.465 120.500, 45.582 137.361 C 56.954 142.982, 63.584 144.300, 77.500 143.708 C 97.293 142.866, 109.251 137.702, 123.113 124.008 C 130.381 116.828, 132.445 114.018, 136.340 106 C 144.089 90.051, 145.719 75.281, 141.519 59.074 C 135.217 34.754, 116.567 16.155, 92.244 9.935 C 82.474 7.436, 66.054 7.406, 57.500 9.872 M 71.686 15.967 C 68.513 16.975, 66 18.812, 66 20.122 C 66 20.605, 70.725 21, 76.500 21 C 87.366 21, 88.926 20.308, 84.538 17.433 C 81.521 15.456, 75.467 14.766, 71.686 15.967 M 60.243 24.103 L 57.987 24.940 61.728 32.501 L 65.469 40.061 76.484 39.781 L 87.500 39.500 90.722 33.500 C 95.907 23.843, 96.079 24.018, 81.250 23.890 C 74.237 23.830, 67.150 23.665, 65.500 23.523 C 63.850 23.381, 61.485 23.642, 60.243 24.103 M 88 27.040 C 88 28.162, 87.100 30.844, 86 33 C 83.723 37.462, 83.614 38, 84.983 38 C 86.146 38, 91 28.749, 91 26.533 C 91 25.690, 90.325 25, 89.500 25 C 88.657 25, 88 25.893, 88 27.040 M 69 45.500 C 69 47.944, 69.167 48, 76.500 48 C 83.833 48, 84 47.944, 84 45.500 C 84 43.056, 83.833 43, 76.500 43 C 69.167 43, 69 43.056, 69 45.500 M 59.908 53.890 C 44.324 59.987, 33.343 74.222, 32.285 89.696 C 31.371 103.058, 34.938 114.097, 42.830 122.329 C 48.529 128.275, 51.051 128.963, 45.819 123.144 C 39.743 116.385, 36.978 110.492, 35.690 101.555 C 33.899 89.123, 38.585 75.962, 47.630 68.020 C 53.577 62.799, 66 57.246, 66 59.809 C 66 61.963, 58.360 72.876, 52.081 79.690 C 44.227 88.214, 41.393 94.440, 42.298 101.188 C 42.918 105.810, 45.212 108.731, 49.718 110.638 C 54.139 112.509, 57.708 112.315, 63 109.916 C 70.890 106.339, 75.054 100.831, 76.376 92.221 C 76.944 88.519, 76.700 87.609, 74.562 85.471 C 73.203 84.112, 71.031 83, 69.737 83 C 68.442 83, 66.556 82.396, 65.547 81.658 C 63.824 80.398, 63.935 80.137, 67.348 77.408 C 71.957 73.724, 75.118 72.891, 76.718 74.940 C 77.737 76.245, 77.942 75.887, 77.968 72.750 C 77.997 69.381, 77.739 69, 75.430 69 C 71.299 69, 64.478 74.348, 62.589 79.068 C 61.678 81.347, 61.191 84.025, 61.507 85.022 C 62.077 86.817, 66.733 89, 69.994 89 C 70.927 89, 72.514 89.911, 73.522 91.024 C 75.301 92.990, 75.295 93.128, 73.336 95.774 C 65.914 105.797, 49.118 108.566, 45.897 100.298 C 44.328 96.273, 48.385 88.954, 56.614 80.965 C 63.687 74.098, 65.161 71.838, 66.982 65.071 C 68.322 60.090, 67.516 51.975, 65.689 52.047 C 65.035 52.073, 62.433 52.902, 59.908 53.890 M 87.248 56.750 C 87.362 59.928, 85.654 67.599, 82.090 79.926 C 77.759 94.907, 76.869 99.243, 77.328 103.122 C 78.840 115.888, 87.347 120.040, 92.998 110.770 C 94.095 108.972, 95.118 107.126, 95.273 106.670 C 95.427 106.213, 96.783 106.400, 98.287 107.085 C 100.720 108.193, 101.294 108.072, 103.523 105.979 C 104.900 104.685, 106.961 103.558, 108.105 103.474 C 109.248 103.390, 110.591 102.686, 111.088 101.910 C 112.504 99.703, 113.991 93.799, 113.963 90.500 C 113.938 87.642, 113.867 87.592, 112.464 89.448 C 111.653 90.519, 111.255 92.228, 111.578 93.246 C 112.242 95.338, 110.451 98, 108.378 98 C 107.620 98, 107 97.325, 107 96.500 C 107 93.990, 105.506 94.821, 104.307 97.998 C 102.953 101.585, 100.456 102.766, 97.770 101.089 C 96.689 100.414, 95.702 100.005, 95.576 100.181 C 95.450 100.356, 94.312 102.220, 93.047 104.323 C 87.972 112.757, 80 110.257, 80 100.231 C 80 98.167, 91.491 61.678, 92.627 60.136 C 93.135 59.445, 100.512 64.460, 104.858 68.452 C 114.818 77.598, 119.185 88.453, 117.310 99.402 C 115.805 108.183, 111.426 116.531, 104.873 123.107 C 99.827 128.171, 95.842 130.604, 84 135.853 C 81.810 136.824, 81.996 136.886, 85.500 136.356 C 92.405 135.311, 103.113 129.657, 108.185 124.377 C 116.728 115.485, 120.520 104.455, 119.850 90.448 C 119.134 75.481, 110.098 61.885, 96.528 55.355 C 92.694 53.510, 88.999 52, 88.317 52 C 87.482 52, 87.134 53.548, 87.248 56.750 M 73.785 104.599 C 73.498 105.094, 72.713 107.848, 72.040 110.717 C 70.368 117.845, 65.735 124.485, 60.148 127.759 C 54.581 131.022, 56.491 131.900, 63.484 129.292 C 69.247 127.144, 71.579 124.261, 73.237 117.235 C 74.060 113.750, 74.906 112.134, 75.740 112.454 C 76.567 112.771, 77 111.982, 77 110.160 C 77 107.179, 74.646 103.108, 73.785 104.599 M 59 113.732 C 55.385 114.397, 54 115.867, 54 119.042 L 54 121.839 58 120.268 C 61.363 118.947, 62 118.243, 62 115.848 C 62 114.282, 61.888 113.061, 61.750 113.136 C 61.612 113.211, 60.375 113.479, 59 113.732" stroke="none" fill="#caab5d" fill-rule="evenodd"/><path d="M 0 75 L 0 150 33.250 149.918 C 64.711 149.841, 66.140 149.760, 59.807 148.399 C 44.351 145.080, 32.229 138.227, 21.344 126.654 C 13.031 117.817, 8.760 110.807, 4.653 99.261 C 1.707 90.979, 1.537 89.707, 1.549 76 C 1.561 62.737, 1.800 60.817, 4.347 53.500 C 8.746 40.865, 13.446 33.373, 22.909 23.909 C 32.763 14.056, 41.423 8.757, 53.487 5.200 C 63.645 2.204, 79.156 1.237, 88.565 3.012 C 123.542 9.612, 148.952 40.371, 148.992 76.162 C 149.016 96.517, 140.728 115.366, 125.279 130.097 C 116.352 138.608, 105.076 144.851, 93 147.969 L 85.500 149.905 118 149.702 L 150.500 149.500 150.756 74.750 L 151.013 -0 75.506 -0 L 0 0 0 75 M 0.475 75.500 C 0.475 116.750, 0.598 133.771, 0.750 113.324 C 0.901 92.877, 0.901 59.127, 0.750 38.324 C 0.599 17.521, 0.475 34.250, 0.475 75.500 M 57.500 9.872 C 38.025 15.485, 22.435 28.562, 13.832 46.500 C -2.496 80.547, 11.465 120.500, 45.582 137.361 C 56.954 142.982, 63.584 144.300, 77.500 143.708 C 97.293 142.866, 109.251 137.702, 123.113 124.008 C 130.381 116.828, 132.445 114.018, 136.340 106 C 144.089 90.051, 145.719 75.281, 141.519 59.074 C 135.217 34.754, 116.567 16.155, 92.244 9.935 C 82.474 7.436, 66.054 7.406, 57.500 9.872 M 71.686 15.967 C 68.513 16.975, 66 18.812, 66 20.122 C 66 20.605, 70.725 21, 76.500 21 C 87.366 21, 88.926 20.308, 84.538 17.433 C 81.521 15.456, 75.467 14.766, 71.686 15.967 M 60.243 24.103 L 57.987 24.940 61.728 32.501 L 65.469 40.061 76.484 39.781 L 87.500 39.500 90.722 33.500 C 95.907 23.843, 96.079 24.018, 81.250 23.890 C 74.237 23.830, 67.150 23.665, 65.500 23.523 C 63.850 23.381, 61.485 23.642, 60.243 24.103 M 88 27.040 C 88 28.162, 87.100 30.844, 86 33 C 83.723 37.462, 83.614 38, 84.983 38 C 86.146 38, 91 28.749, 91 26.533 C 91 25.690, 90.325 25, 89.500 25 C 88.657 25, 88 25.893, 88 27.040 M 69 45.500 C 69 47.944, 69.167 48, 76.500 48 C 83.833 48, 84 47.944, 84 45.500 C 84 43.056, 83.833 43, 76.500 43 C 69.167 43, 69 43.056, 69 45.500 M 59.908 53.890 C 44.324 59.987, 33.343 74.222, 32.285 89.696 C 31.371 103.058, 34.938 114.097, 42.830 122.329 C 48.529 128.275, 51.051 128.963, 45.819 123.144 C 39.743 116.385, 36.978 110.492, 35.690 101.555 C 33.899 89.123, 38.585 75.962, 47.630 68.020 C 53.577 62.799, 66 57.246, 66 59.809 C 66 61.963, 58.360 72.876, 52.081 79.690 C 44.227 88.214, 41.393 94.440, 42.298 101.188 C 42.918 105.810, 45.212 108.731, 49.718 110.638 C 54.139 112.509, 57.708 112.315, 63 109.916 C 70.890 106.339, 75.054 100.831, 76.376 92.221 C 76.944 88.519, 76.700 87.609, 74.562 85.471 C 73.203 84.112, 71.031 83, 69.737 83 C 68.442 83, 66.556 82.396, 65.547 81.658 C 63.824 80.398, 63.935 80.137, 67.348 77.408 C 71.957 73.724, 75.118 72.891, 76.718 74.940 C 77.737 76.245, 77.942 75.887, 77.968 72.750 C 77.997 69.381, 77.739 69, 75.430 69 C 71.299 69, 64.478 74.348, 62.589 79.068 C 61.678 81.347, 61.191 84.025, 61.507 85.022 C 62.077 86.817, 66.733 89, 69.994 89 C 70.927 89, 72.514 89.911, 73.522 91.024 C 75.301 92.990, 75.295 93.128, 73.336 95.774 C 65.914 105.797, 49.118 108.566, 45.897 100.298 C 44.328 96.273, 48.385 88.954, 56.614 80.965 C 63.687 74.098, 65.161 71.838, 66.982 65.071 C 68.322 60.090, 67.516 51.975, 65.689 52.047 C 65.035 52.073, 62.433 52.902, 59.908 53.890 M 87.248 56.750 C 87.362 59.928, 85.654 67.599, 82.090 79.926 C 77.759 94.907, 76.869 99.243, 77.328 103.122 C 78.840 115.888, 87.347 120.040, 92.998 110.770 C 94.095 108.972, 95.118 107.126, 95.273 106.670 C 95.427 106.213, 96.783 106.400, 98.287 107.085 C 100.720 108.193, 101.294 108.072, 103.523 105.979 C 104.900 104.685, 106.961 103.558, 108.105 103.474 C 109.248 103.390, 110.591 102.686, 111.088 101.910 C 112.504 99.703, 113.991 93.799, 113.963 90.500 C 113.938 87.642, 113.867 87.592, 112.464 89.448 C 111.653 90.519, 111.255 92.228, 111.578 93.246 C 112.242 95.338, 110.451 98, 108.378 98 C 107.620 98, 107 97.325, 107 96.500 C 107 93.990, 105.506 94.821, 104.307 97.998 C 102.953 101.585, 100.456 102.766, 97.770 101.089 C 96.689 100.414, 95.702 100.005, 95.576 100.181 C 95.450 100.356, 94.312 102.220, 93.047 104.323 C 87.972 112.757, 80 110.257, 80 100.231 C 80 98.167, 91.491 61.678, 92.627 60.136 C 93.135 59.445, 100.512 64.460, 104.858 68.452 C 114.818 77.598, 119.185 88.453, 117.310 99.402 C 115.805 108.183, 111.426 116.531, 104.873 123.107 C 99.827 128.171, 95.842 130.604, 84 135.853 C 81.810 136.824, 81.996 136.886, 85.500 136.356 C 92.405 135.311, 103.113 129.657, 108.185 124.377 C 116.728 115.485, 120.520 104.455, 119.850 90.448 C 119.134 75.481, 110.098 61.885, 96.528 55.355 C 92.694 53.510, 88.999 52, 88.317 52 C 87.482 52, 87.134 53.548, 87.248 56.750 M 73.785 104.599 C 73.498 105.094, 72.713 107.848, 72.040 110.717 C 70.368 117.845, 65.735 124.485, 60.148 127.759 C 54.581 131.022, 56.491 131.900, 63.484 129.292 C 69.247 127.144, 71.579 124.261, 73.237 117.235 C 74.060 113.750, 74.906 112.134, 75.740 112.454 C 76.567 112.771, 77 111.982, 77 110.160 C 77 107.179, 74.646 103.108, 73.785 104.599 M 59 113.732 C 55.385 114.397, 54 115.867, 54 119.042 L 54 121.839 58 120.268 C 61.363 118.947, 62 118.243, 62 115.848 C 62 114.282, 61.888 113.061, 61.750 113.136 C 61.612 113.211, 60.375 113.479, 59 113.732" stroke="none" fill="#0b0806" fill-rule="evenodd"/></svg>